name rise38.3101peak57.3503fall81.6963.mot
datacolumns 19
datarows 30
range 16.88660800000000 16.93493800000000
endheader
time	ground_force1_vx	ground_force1_vy	ground_force1_vz	ground_force1_px	ground_force1_py	ground_force1_pz	ground_force2_vx	ground_force2_vy	ground_force2_vz	ground_force2_px	ground_force2_py	ground_force2_pz	ground_torque1_x	ground_torque1_y	ground_torque1_z	ground_torque2_x	ground_torque2_y	ground_torque2_z	
16.88660800000000	66.10380700000000	802.34928400000001	58.49920600000000	0.33097000000000	0.00000000000000	0.12173100000000	0.00000000000000	0.00000000000000	0.00000000000000	0.00000000000000	0.00000000000000	0.00000000000000	0.00000000000000	21.31999300000000	0.00000000000000	0.00000000000000	0.00000000000000	0.00000000000000	
16.88827400000000	65.05366600000001	802.67565100000002	58.58023500000000	0.32965300000000	0.00000000000000	0.12177300000000	0.00000000000000	0.00000000000000	0.00000000000000	0.00000000000000	0.00000000000000	0.00000000000000	0.00000000000000	21.43579800000000	0.00000000000000	0.00000000000000	0.00000000000000	0.00000000000000	
16.88994300000000	64.00539600000000	802.85768299999995	58.65865800000000	0.32834700000000	0.00000000000000	0.12181600000000	0.00000000000000	0.00000000000000	0.00000000000000	0.00000000000000	0.00000000000000	0.00000000000000	0.00000000000000	21.55038900000000	0.00000000000000	0.00000000000000	0.00000000000000	0.00000000000000	
16.89162300000000	62.95991700000000	802.89684999999997	58.73416300000000	0.32705300000000	0.00000000000000	0.12186000000000	0.00000000000000	0.00000000000000	0.00000000000000	0.00000000000000	0.00000000000000	0.00000000000000	0.00000000000000	21.66349600000000	0.00000000000000	0.00000000000000	0.00000000000000	0.00000000000000	
16.89327600000000	61.91805800000000	802.79474500000003	58.80637100000000	0.32576800000000	0.00000000000000	0.12190500000000	0.00000000000000	0.00000000000000	0.00000000000000	0.00000000000000	0.00000000000000	0.00000000000000	0.00000000000000	21.77482100000000	0.00000000000000	0.00000000000000	0.00000000000000	0.00000000000000	
16.89493700000000	60.88056500000000	802.55309299999999	58.87484500000000	0.32449400000000	0.00000000000000	0.12195100000000	0.00000000000000	0.00000000000000	0.00000000000000	0.00000000000000	0.00000000000000	0.00000000000000	0.00000000000000	21.88403600000000	0.00000000000000	0.00000000000000	0.00000000000000	0.00000000000000	
16.89660600000000	59.84810400000000	802.17375900000002	58.93909000000000	0.32322800000000	0.00000000000000	0.12199700000000	0.00000000000000	0.00000000000000	0.00000000000000	0.00000000000000	0.00000000000000	0.00000000000000	0.00000000000000	21.99079000000000	0.00000000000000	0.00000000000000	0.00000000000000	0.00000000000000	
16.89827500000000	58.82126200000000	801.65875400000004	58.99856600000000	0.32197100000000	0.00000000000000	0.12204400000000	0.00000000000000	0.00000000000000	0.00000000000000	0.00000000000000	0.00000000000000	0.00000000000000	0.00000000000000	22.09470900000000	0.00000000000000	0.00000000000000	0.00000000000000	0.00000000000000	
16.89994300000000	57.80055300000000	801.01024399999994	59.05269000000000	0.32072200000000	0.00000000000000	0.12209200000000	0.00000000000000	0.00000000000000	0.00000000000000	0.00000000000000	0.00000000000000	0.00000000000000	0.00000000000000	22.19540500000000	0.00000000000000	0.00000000000000	0.00000000000000	0.00000000000000	
16.90161300000000	56.78641900000000	800.23055099999999	59.10084200000000	0.31947900000000	0.00000000000000	0.12214000000000	0.00000000000000	0.00000000000000	0.00000000000000	0.00000000000000	0.00000000000000	0.00000000000000	0.00000000000000	22.29247400000000	0.00000000000000	0.00000000000000	0.00000000000000	0.00000000000000	
16.90327100000000	55.77924200000000	799.32216300000005	59.14237800000000	0.31824200000000	0.00000000000000	0.12218900000000	0.00000000000000	0.00000000000000	0.00000000000000	0.00000000000000	0.00000000000000	0.00000000000000	0.00000000000000	22.38550100000000	0.00000000000000	0.00000000000000	0.00000000000000	0.00000000000000	
16.90493800000000	54.77933900000000	798.28773300000000	59.17662800000000	0.31700900000000	0.00000000000000	0.12223800000000	0.00000000000000	0.00000000000000	0.00000000000000	0.00000000000000	0.00000000000000	0.00000000000000	0.00000000000000	22.47406700000000	0.00000000000000	0.00000000000000	0.00000000000000	0.00000000000000	
16.90660800000000	53.78697500000000	797.13008100000002	59.20291000000000	0.31578000000000	0.00000000000000	0.12228700000000	0.00000000000000	0.00000000000000	0.00000000000000	0.00000000000000	0.00000000000000	0.00000000000000	0.00000000000000	22.55774900000000	0.00000000000000	0.00000000000000	0.00000000000000	0.00000000000000	
16.90827500000000	52.80236100000000	795.85219800000004	59.22053500000000	0.31455400000000	0.00000000000000	0.12233700000000	0.00000000000000	0.00000000000000	0.00000000000000	0.00000000000000	0.00000000000000	0.00000000000000	0.00000000000000	22.63612400000000	0.00000000000000	0.00000000000000	0.00000000000000	0.00000000000000	
16.90994000000000	51.82566300000000	794.45724499999994	59.22881000000000	0.31332900000000	0.00000000000000	0.12238600000000	0.00000000000000	0.00000000000000	0.00000000000000	0.00000000000000	0.00000000000000	0.00000000000000	0.00000000000000	22.70877500000000	0.00000000000000	0.00000000000000	0.00000000000000	0.00000000000000	
16.91161000000000	50.85700700000000	792.94855299999995	59.22705200000000	0.31210400000000	0.00000000000000	0.12243600000000	0.00000000000000	0.00000000000000	0.00000000000000	0.00000000000000	0.00000000000000	0.00000000000000	0.00000000000000	22.77529200000000	0.00000000000000	0.00000000000000	0.00000000000000	0.00000000000000	
16.91327100000000	49.89648100000000	791.32961599999999	59.21458800000000	0.31087900000000	0.00000000000000	0.12248500000000	0.00000000000000	0.00000000000000	0.00000000000000	0.00000000000000	0.00000000000000	0.00000000000000	0.00000000000000	22.83527600000000	0.00000000000000	0.00000000000000	0.00000000000000	0.00000000000000	
16.91494300000000	48.94414200000000	789.60409600000003	59.19076300000000	0.30965100000000	0.00000000000000	0.12253500000000	0.00000000000000	0.00000000000000	0.00000000000000	0.00000000000000	0.00000000000000	0.00000000000000	0.00000000000000	22.88834200000000	0.00000000000000	0.00000000000000	0.00000000000000	0.00000000000000	
16.91660900000000	48.00001900000000	787.77581099999998	59.15494800000000	0.30842000000000	0.00000000000000	0.12258400000000	0.00000000000000	0.00000000000000	0.00000000000000	0.00000000000000	0.00000000000000	0.00000000000000	0.00000000000000	22.93412400000000	0.00000000000000	0.00000000000000	0.00000000000000	0.00000000000000	
16.91827000000000	47.06412000000000	785.84873500000003	59.10654500000000	0.30718300000000	0.00000000000000	0.12263300000000	0.00000000000000	0.00000000000000	0.00000000000000	0.00000000000000	0.00000000000000	0.00000000000000	0.00000000000000	22.97227500000000	0.00000000000000	0.00000000000000	0.00000000000000	0.00000000000000	
16.91994500000000	46.13643300000000	783.82699000000002	59.04499300000000	0.30594200000000	0.00000000000000	0.12268100000000	0.00000000000000	0.00000000000000	0.00000000000000	0.00000000000000	0.00000000000000	0.00000000000000	0.00000000000000	23.00247100000000	0.00000000000000	0.00000000000000	0.00000000000000	0.00000000000000	
16.92162300000000	45.21693300000000	781.71483899999998	58.96977100000000	0.30469300000000	0.00000000000000	0.12272900000000	0.00000000000000	0.00000000000000	0.00000000000000	0.00000000000000	0.00000000000000	0.00000000000000	0.00000000000000	23.02441600000000	0.00000000000000	0.00000000000000	0.00000000000000	0.00000000000000	
16.92327100000000	44.30558500000000	779.51667799999996	58.88040500000000	0.30343500000000	0.00000000000000	0.12277600000000	0.00000000000000	0.00000000000000	0.00000000000000	0.00000000000000	0.00000000000000	0.00000000000000	0.00000000000000	23.03784000000000	0.00000000000000	0.00000000000000	0.00000000000000	0.00000000000000	
16.92494000000000	43.40234700000000	777.23702700000001	58.77647100000000	0.30216800000000	0.00000000000000	0.12282300000000	0.00000000000000	0.00000000000000	0.00000000000000	0.00000000000000	0.00000000000000	0.00000000000000	0.00000000000000	23.04250600000000	0.00000000000000	0.00000000000000	0.00000000000000	0.00000000000000	
16.92662400000000	42.50717600000000	774.88052200000004	58.65760300000000	0.30089100000000	0.00000000000000	0.12286900000000	0.00000000000000	0.00000000000000	0.00000000000000	0.00000000000000	0.00000000000000	0.00000000000000	0.00000000000000	23.03820600000000	0.00000000000000	0.00000000000000	0.00000000000000	0.00000000000000	
16.92827400000000	41.62002700000000	772.45190200000002	58.52348900000000	0.29960200000000	0.00000000000000	0.12291400000000	0.00000000000000	0.00000000000000	0.00000000000000	0.00000000000000	0.00000000000000	0.00000000000000	0.00000000000000	23.02477000000000	0.00000000000000	0.00000000000000	0.00000000000000	0.00000000000000	
16.92993900000000	40.74085900000000	769.95600200000001	58.37388300000000	0.29830000000000	0.00000000000000	0.12295800000000	0.00000000000000	0.00000000000000	0.00000000000000	0.00000000000000	0.00000000000000	0.00000000000000	0.00000000000000	23.00206100000000	0.00000000000000	0.00000000000000	0.00000000000000	0.00000000000000	
16.93160400000000	39.86963800000000	767.39774000000000	58.20860200000000	0.29698500000000	0.00000000000000	0.12300100000000	0.00000000000000	0.00000000000000	0.00000000000000	0.00000000000000	0.00000000000000	0.00000000000000	0.00000000000000	22.96998100000000	0.00000000000000	0.00000000000000	0.00000000000000	0.00000000000000	
16.93327700000000	39.00633800000000	764.78210200000001	58.02752700000000	0.29565500000000	0.00000000000000	0.12304300000000	0.00000000000000	0.00000000000000	0.00000000000000	0.00000000000000	0.00000000000000	0.00000000000000	0.00000000000000	22.92846800000000	0.00000000000000	0.00000000000000	0.00000000000000	0.00000000000000	
16.93493800000000	38.15094300000000	762.11413700000003	57.83061000000000	0.29431000000000	0.00000000000000	0.12308500000000	0.00000000000000	0.00000000000000	0.00000000000000	0.00000000000000	0.00000000000000	0.00000000000000	0.00000000000000	22.87750200000000	0.00000000000000	0.00000000000000	0.00000000000000	0.00000000000000	
